<svg width="154" height="174" viewBox="0 0 154 174" fill="none" xmlns="http://www.w3.org/2000/svg">
<g filter="url(#filter0_d_11_46)">
<path fill-rule="evenodd" clip-rule="evenodd" d="M55.8454 39.8806C56.5021 38.4548 57.2714 37.3473 57.7797 36.7633C57.7897 38.1407 57.5774 39.3762 57.2487 40.45C58.2601 40.9379 59.3112 41.6211 60.3154 42.5637C59.5416 42.5403 58.2062 42.3529 56.7137 41.8668C56.0256 43.384 55.1559 44.4315 54.5857 44.9192C54.6243 43.6424 54.893 42.4187 55.2704 41.3149C54.2038 40.8422 53.123 40.2084 52.1595 39.3697C52.9048 39.2823 54.2644 39.3553 55.8454 39.8806Z" fill="url(#paint0_linear_11_46)"/>
<path fill-rule="evenodd" clip-rule="evenodd" d="M50.654 25.5979C51.0911 24.6489 51.6032 23.9117 51.9415 23.523C51.9482 24.4398 51.8069 25.2622 51.5881 25.9769C52.2613 26.3016 52.9609 26.7564 53.6294 27.3838C53.1143 27.3683 52.2254 27.2435 51.2319 26.9199C50.7739 27.9298 50.195 28.6271 49.8155 28.9518C49.8412 28.1019 50.02 27.2873 50.2712 26.5526C49.5613 26.238 48.8419 25.8161 48.2005 25.2578C48.6966 25.1996 49.6016 25.2482 50.654 25.5979Z" fill="url(#paint1_linear_11_46)"/>
<path fill-rule="evenodd" clip-rule="evenodd" d="M36.6033 11.4003C37.2601 9.97456 38.0293 8.86704 38.5377 8.28308C38.5476 9.66043 38.3354 10.8959 38.0067 11.9697C39.0181 12.4576 40.0691 13.1408 41.0734 14.0834C40.2995 14.06 38.9641 13.8726 37.4716 13.3865C36.7836 14.9037 35.9138 15.9513 35.3436 16.439C35.3822 15.1621 35.6509 13.9384 36.0283 12.8345C34.9617 12.3619 33.881 11.7281 32.9175 10.8894C33.6627 10.802 35.0223 10.875 36.6033 11.4003Z" fill="url(#paint2_linear_11_46)"/>
<path fill-rule="evenodd" clip-rule="evenodd" d="M34.3769 43.3655C35.3432 41.2679 36.4749 39.6384 37.2229 38.7793C37.2375 40.8057 36.9252 42.6234 36.4416 44.2032C37.9296 44.921 39.476 45.9261 40.9535 47.313C39.8149 47.2785 37.8503 47.0028 35.6544 46.2876C34.6421 48.5198 33.3626 50.061 32.5237 50.7785C32.5805 48.9 32.9758 47.0997 33.531 45.4756C31.9618 44.7803 30.3718 43.8478 28.9542 42.6138C30.0506 42.4853 32.0509 42.5926 34.3769 43.3655Z" fill="url(#paint3_linear_11_46)"/>
<circle cx="40.19" cy="29.0093" r="0.846528" transform="rotate(21.3865 40.19 29.0093)" fill="#2F235A"/>
<circle cx="61.1502" cy="18.3653" r="0.846528" transform="rotate(21.3865 61.1502 18.3653)" fill="#FE9076"/>
<circle cx="20.9151" cy="22.9896" r="0.846528" transform="rotate(21.3865 20.9151 22.9896)" fill="#FFA400"/>
<circle cx="39.093" cy="57.075" r="0.846528" transform="rotate(21.3865 39.093 57.075)" fill="#23BB86"/>
<path d="M60.5071 14.3193C59.6836 11.1738 56.7109 3.97999 51.409 0.368456" stroke="#FE9076" stroke-width="0.736823" stroke-linecap="round"/>
<path d="M18.4167 19.5745C16.3674 17.0501 10.6888 11.7265 4.36847 10.6274" stroke="#FFA400" stroke-width="0.736823" stroke-linecap="round"/>
<path d="M35.491 58.3052C33.6749 58.9675 29.1031 61.078 25.3448 64.2213" stroke="#23BB86" stroke-width="0.736823" stroke-linecap="round"/>
<path fill-rule="evenodd" clip-rule="evenodd" d="M97.7959 39.8806C97.1391 38.4548 96.3699 37.3473 95.8615 36.7633C95.8515 38.1407 96.0638 39.3762 96.3925 40.45C95.3811 40.9379 94.3301 41.6211 93.3258 42.5637C94.0997 42.5403 95.4351 42.3529 96.9276 41.8668C97.6156 43.384 98.4854 44.4315 99.0556 44.9192C99.0169 43.6424 98.7483 42.4187 98.3709 41.3149C99.4375 40.8422 100.518 40.2084 101.482 39.3697C100.737 39.2823 99.3769 39.3553 97.7959 39.8806Z" fill="url(#paint4_linear_11_46)"/>
<path fill-rule="evenodd" clip-rule="evenodd" d="M102.987 25.5979C102.55 24.6489 102.038 23.9117 101.7 23.523C101.693 24.4398 101.834 25.2622 102.053 25.9769C101.38 26.3016 100.68 26.7564 100.012 27.3838C100.527 27.3683 101.416 27.2435 102.409 26.9199C102.867 27.9298 103.446 28.6271 103.826 28.9518C103.8 28.1019 103.621 27.2873 103.37 26.5526C104.08 26.238 104.799 25.8161 105.441 25.2578C104.945 25.1996 104.04 25.2482 102.987 25.5979Z" fill="url(#paint5_linear_11_46)"/>
<path fill-rule="evenodd" clip-rule="evenodd" d="M117.038 11.4003C116.381 9.97456 115.612 8.86704 115.104 8.28308C115.094 9.66043 115.306 10.8959 115.635 11.9697C114.623 12.4576 113.572 13.1408 112.568 14.0834C113.342 14.06 114.677 13.8726 116.17 13.3865C116.858 14.9037 117.727 15.9513 118.298 16.439C118.259 15.1621 117.99 13.9384 117.613 12.8345C118.68 12.3619 119.76 11.7281 120.724 10.8894C119.979 10.802 118.619 10.875 117.038 11.4003Z" fill="url(#paint6_linear_11_46)"/>
<path fill-rule="evenodd" clip-rule="evenodd" d="M119.264 43.3655C118.298 41.2679 117.166 39.6384 116.418 38.7793C116.404 40.8057 116.716 42.6234 117.2 44.2032C115.712 44.921 114.165 45.9261 112.688 47.313C113.826 47.2785 115.791 47.0028 117.987 46.2876C118.999 48.5198 120.279 50.061 121.118 50.7785C121.061 48.9 120.666 47.0997 120.11 45.4756C121.679 44.7803 123.27 43.8478 124.687 42.6138C123.591 42.4853 121.59 42.5926 119.264 43.3655Z" fill="url(#paint7_linear_11_46)"/>
<circle cx="0.846528" cy="0.846528" r="0.846528" transform="matrix(-0.931142 0.364658 0.364658 0.931142 113.931 27.9123)" fill="#2F235A"/>
<circle cx="0.846528" cy="0.846528" r="0.846528" transform="matrix(-0.931142 0.364658 0.364658 0.931142 92.9706 17.2684)" fill="#FE9076"/>
<circle cx="0.846528" cy="0.846528" r="0.846528" transform="matrix(-0.931142 0.364658 0.364658 0.931142 133.206 21.8927)" fill="#FFA400"/>
<circle cx="0.846528" cy="0.846528" r="0.846528" transform="matrix(-0.931142 0.364658 0.364658 0.931142 115.028 55.978)" fill="#23BB86"/>
<path d="M93.1341 14.3193C93.9577 11.1738 96.9303 3.97999 102.232 0.368456" stroke="#FE9076" stroke-width="0.736823" stroke-linecap="round"/>
<path d="M135.225 19.5745C137.274 17.0501 142.953 11.7265 149.273 10.6274" stroke="#FFA400" stroke-width="0.736823" stroke-linecap="round"/>
<path d="M118.15 58.3052C119.966 58.9675 124.538 61.078 128.297 64.2213" stroke="#23BB86" stroke-width="0.736823" stroke-linecap="round"/>
<rect x="31.3557" y="103.632" width="89.8505" height="62.1103" fill="url(#paint8_linear_11_46)"/>
<mask id="mask0_11_46" style="mask-type:alpha" maskUnits="userSpaceOnUse" x="31" y="103" width="91" height="63">
<rect x="31.3557" y="103.632" width="89.8505" height="62.1103" fill="#C4C4C4"/>
</mask>
<g mask="url(#mask0_11_46)">
<path d="M35.6071 102.051L96.7891 102.051L82.9605 126.062L21.7785 126.062L35.6071 102.051Z" fill="black" fill-opacity="0.07"/>
<rect x="92.4576" y="103.633" width="89.8505" height="62.1103" fill="url(#paint9_linear_11_46)"/>
</g>
<path d="M31.2763 103.633L92.4583 103.633L80.6398 123.355L19.4578 123.355L31.2763 103.633Z" fill="url(#paint10_linear_11_46)"/>
<mask id="mask1_11_46" style="mask-type:alpha" maskUnits="userSpaceOnUse" x="92" y="103" width="30" height="63">
<rect x="92.4583" y="103.632" width="28.7479" height="62.1103" fill="#C4C4C4"/>
</mask>
<g mask="url(#mask1_11_46)">
<path d="M117.706 103.529L88.9135 103.529L102.443 126.236L131.236 126.236L117.706 103.529Z" fill="black" fill-opacity="0.07"/>
</g>
<path d="M121.251 103.633L92.4583 103.632L104.277 123.355L133.07 123.355L121.251 103.633Z" fill="url(#paint11_linear_11_46)"/>
<circle cx="63.2067" cy="86.4342" r="8.49082" fill="url(#paint12_linear_11_46)"/>
<circle cx="89.607" cy="75.0844" r="8.20473" fill="url(#paint13_linear_11_46)"/>
<circle cx="71.6975" cy="54.1785" r="6.61631" fill="url(#paint14_linear_11_46)"/>
<circle cx="94.1083" cy="53.18" r="1.65" fill="#FFA800" fill-opacity="0.23"/>
<circle cx="83.0522" cy="90.6836" r="1.65" fill="#FFA800" fill-opacity="0.23"/>
<circle cx="55.9581" cy="65.2297" r="1.65" fill="#FFA800" fill-opacity="0.23"/>
<path d="M121.418 103.926H31.2846L17.4423 18.5784H138.04L121.418 103.926Z" fill="url(#paint15_linear_11_46)"/>
</g>
<defs>
<filter id="filter0_d_11_46" x="0" y="0" width="153.641" height="173.743" filterUnits="userSpaceOnUse" color-interpolation-filters="sRGB">
<feFlood flood-opacity="0" result="BackgroundImageFix"/>
<feColorMatrix in="SourceAlpha" type="matrix" values="0 0 0 0 0 0 0 0 0 0 0 0 0 0 0 0 0 0 127 0" result="hardAlpha"/>
<feOffset dy="4"/>
<feGaussianBlur stdDeviation="2"/>
<feComposite in2="hardAlpha" operator="out"/>
<feColorMatrix type="matrix" values="0 0 0 0 0 0 0 0 0 0 0 0 0 0 0 0 0 0 0.25 0"/>
<feBlend mode="normal" in2="BackgroundImageFix" result="effect1_dropShadow_11_46"/>
<feBlend mode="normal" in="SourceGraphic" in2="effect1_dropShadow_11_46" result="shape"/>
</filter>
<linearGradient id="paint0_linear_11_46" x1="57.5298" y1="37.6667" x2="54.5308" y2="45.3246" gradientUnits="userSpaceOnUse">
<stop stop-color="#FFE89E"/>
<stop offset="1" stop-color="#FFBF1A"/>
</linearGradient>
<linearGradient id="paint1_linear_11_46" x1="51.7752" y1="24.1243" x2="49.779" y2="29.2216" gradientUnits="userSpaceOnUse">
<stop stop-color="#FFE89E"/>
<stop offset="1" stop-color="#FFBF1A"/>
</linearGradient>
<linearGradient id="paint2_linear_11_46" x1="38.2878" y1="9.18644" x2="35.2888" y2="16.8443" gradientUnits="userSpaceOnUse">
<stop stop-color="#FFE89E"/>
<stop offset="1" stop-color="#FFBF1A"/>
</linearGradient>
<linearGradient id="paint3_linear_11_46" x1="36.8552" y1="40.1084" x2="32.4429" y2="51.3749" gradientUnits="userSpaceOnUse">
<stop stop-color="#FFE89E"/>
<stop offset="1" stop-color="#FFBF1A"/>
</linearGradient>
<linearGradient id="paint4_linear_11_46" x1="96.1114" y1="37.6667" x2="99.1104" y2="45.3246" gradientUnits="userSpaceOnUse">
<stop stop-color="#FFE89E"/>
<stop offset="1" stop-color="#FFBF1A"/>
</linearGradient>
<linearGradient id="paint5_linear_11_46" x1="101.866" y1="24.1243" x2="103.862" y2="29.2216" gradientUnits="userSpaceOnUse">
<stop stop-color="#FFE89E"/>
<stop offset="1" stop-color="#FFBF1A"/>
</linearGradient>
<linearGradient id="paint6_linear_11_46" x1="115.353" y1="9.18644" x2="118.353" y2="16.8443" gradientUnits="userSpaceOnUse">
<stop stop-color="#FFE89E"/>
<stop offset="1" stop-color="#FFBF1A"/>
</linearGradient>
<linearGradient id="paint7_linear_11_46" x1="116.786" y1="40.1084" x2="121.198" y2="51.3749" gradientUnits="userSpaceOnUse">
<stop stop-color="#FFE89E"/>
<stop offset="1" stop-color="#FFBF1A"/>
</linearGradient>
<linearGradient id="paint8_linear_11_46" x1="61.37" y1="92.1334" x2="25.5597" y2="190.765" gradientUnits="userSpaceOnUse">
<stop stop-color="#FFD481"/>
<stop offset="1" stop-color="#FA620C"/>
</linearGradient>
<linearGradient id="paint9_linear_11_46" x1="46.6855" y1="99.6931" x2="155.366" y2="215.833" gradientUnits="userSpaceOnUse">
<stop stop-color="#FFD481"/>
<stop offset="0.83311" stop-color="#FA620C"/>
</linearGradient>
<linearGradient id="paint10_linear_11_46" x1="32.5354" y1="96.5836" x2="29.6278" y2="138.606" gradientUnits="userSpaceOnUse">
<stop stop-color="#FFD481"/>
<stop offset="1" stop-color="#FA620C"/>
</linearGradient>
<linearGradient id="paint11_linear_11_46" x1="125.794" y1="96.5836" x2="130.966" y2="138.164" gradientUnits="userSpaceOnUse">
<stop stop-color="#FFD481"/>
<stop offset="1" stop-color="#FA620C"/>
</linearGradient>
<linearGradient id="paint12_linear_11_46" x1="63.8497" y1="75.1412" x2="62.2346" y2="98.06" gradientUnits="userSpaceOnUse">
<stop stop-color="#FF9F81"/>
<stop offset="1" stop-color="#F53838"/>
</linearGradient>
<linearGradient id="paint13_linear_11_46" x1="90.2282" y1="64.1719" x2="88.6676" y2="86.3184" gradientUnits="userSpaceOnUse">
<stop stop-color="#FF9F81"/>
<stop offset="1" stop-color="#F53838"/>
</linearGradient>
<linearGradient id="paint14_linear_11_46" x1="72.1985" y1="45.3786" x2="70.94" y2="63.2376" gradientUnits="userSpaceOnUse">
<stop stop-color="#FF9F81"/>
<stop offset="1" stop-color="#F53838"/>
</linearGradient>
<linearGradient id="paint15_linear_11_46" x1="76.7503" y1="18.5784" x2="76.7503" y2="199.902" gradientUnits="userSpaceOnUse">
<stop stop-color="white" stop-opacity="0"/>
<stop offset="1" stop-color="#FE9277"/>
</linearGradient>
</defs>
</svg>
